# This file uses centimeters as units for non-parametric coordinates.

mtllib Mesh_SharkFin.mtl
g default
v 0.000002 1.053067 -34.692348
v -5.494004 0.782254 -27.244394
v -6.666361 -1.191236 27.028488
v -0.000001 -1.462063 34.476463
v 6.666363 -1.191236 27.028503
v 5.494006 0.782253 -27.244381
v 0.000001 13.978065 -23.834188
v -3.642182 13.978065 -18.422403
v -4.419382 13.978065 21.013041
v -0.000000 13.978065 26.424835
v 4.419384 13.978065 21.013048
v 3.642184 13.978065 -18.422396
v 0.000001 29.306063 -17.621613
v -3.437621 29.306063 -13.547741
v -4.171170 29.306063 16.138378
v -0.000000 29.306063 20.212261
v 4.171172 29.306063 16.138388
v 3.437623 29.306063 -13.547733
v 0.000001 44.526119 -11.983571
v -2.802768 44.526119 -9.426086
v -3.400846 44.526119 9.210194
v -0.000000 44.526119 11.767681
v 3.400848 44.526119 9.210197
v 2.802770 44.526119 -9.426082
v 0.000001 53.053673 -8.963170
v -2.303249 53.053673 -7.358348
v -2.794735 53.053673 4.335920
v 0.000000 53.053673 5.940731
v 2.794738 53.053673 4.335924
v 2.303251 53.053673 -7.358346
v 0.000001 58.666744 -7.434271
v -1.397963 58.666744 -6.646879
v -1.696272 58.666744 -0.909195
v 0.000000 58.666744 -0.121807
v 1.696274 58.666744 -0.909193
v 1.397965 58.666744 -6.646878
v 0.000001 60.679218 -7.292156
v -1.200100 60.070015 -6.846104
v -1.456188 60.070015 -3.084736
v 0.000001 60.972023 -4.149899
v 1.456190 60.070015 -3.084734
v 1.200102 60.070015 -6.846103
vt 0.578125 0.020934
vt 0.421875 0.020934
vt 0.343750 0.156250
vt 0.421875 0.291566
vt 0.578125 0.291566
vt 0.656250 0.156250
vt 0.375000 0.312500
vt 0.416667 0.312500
vt 0.458333 0.312500
vt 0.500000 0.312500
vt 0.541667 0.312500
vt 0.583333 0.312500
vt 0.625000 0.312500
vt 0.375000 0.688440
vt 0.416667 0.688440
vt 0.458333 0.688440
vt 0.500000 0.688440
vt 0.541667 0.688440
vt 0.583333 0.688440
vt 0.625000 0.688440
vt 0.578125 0.708434
vt 0.421875 0.708434
vt 0.343750 0.843750
vt 0.421875 0.979066
vt 0.578125 0.979066
vt 0.656250 0.843750
vt 0.578125 0.979066
vt 0.421875 0.979066
vt 0.343750 0.843750
vt 0.421875 0.708434
vt 0.578125 0.708434
vt 0.656250 0.843750
vt 0.578125 0.979066
vt 0.421875 0.979066
vt 0.343750 0.843750
vt 0.421875 0.708434
vt 0.578125 0.708434
vt 0.656250 0.843750
vt 0.578125 0.979066
vt 0.421875 0.979066
vt 0.343750 0.843750
vt 0.421875 0.708434
vt 0.578125 0.708434
vt 0.656250 0.843750
vt 0.578125 0.979066
vt 0.421875 0.979066
vt 0.343750 0.843750
vt 0.421875 0.708434
vt 0.578125 0.708434
vt 0.656250 0.843750
vt 0.578125 0.979066
vt 0.421875 0.979066
vt 0.343750 0.843750
vt 0.421875 0.708434
vt 0.578125 0.708434
vt 0.656250 0.843750
vn -0.736591 0.439524 -0.514055
vn -0.736591 0.439524 -0.514055
vn -0.736591 0.439524 -0.514055
vn -0.736591 0.439524 -0.514055
vn -0.989321 0.144693 -0.017535
vn -0.989321 0.144693 -0.017535
vn -0.989321 0.144693 -0.017535
vn -0.989321 0.144693 -0.017535
vn -0.709724 0.336527 0.618904
vn -0.709724 0.336527 0.618904
vn -0.709724 0.336527 0.618904
vn -0.709724 0.336527 0.618904
vn 0.709723 0.336527 0.618904
vn 0.709723 0.336527 0.618904
vn 0.709723 0.336527 0.618904
vn 0.709723 0.336527 0.618904
vn 0.989321 0.144693 -0.017535
vn 0.989321 0.144693 -0.017535
vn 0.989321 0.144693 -0.017535
vn 0.989321 0.144693 -0.017535
vn 0.736592 0.439523 -0.514054
vn 0.736592 0.439523 -0.514054
vn 0.736592 0.439523 -0.514054
vn 0.736592 0.439523 -0.514054
vn -0.000000 -0.999340 -0.036338
vn 0.000001 -0.999340 -0.036338
vn 0.000001 -0.999340 -0.036338
vn -0.000000 -0.999340 -0.036338
vn -0.000000 0.997901 -0.064750
vn -0.517364 0.853970 -0.055410
vn -0.517364 0.853970 -0.055410
vn 0.000000 0.997902 -0.064750
vn -0.782402 0.216420 -0.583961
vn -0.782402 0.216420 -0.583961
vn -0.782402 0.216420 -0.583961
vn -0.782402 0.216420 -0.583961
vn -0.999652 0.014764 -0.021849
vn -0.999652 0.014764 -0.021849
vn -0.999652 0.014764 -0.021849
vn -0.999652 0.014764 -0.021849
vn -0.719290 0.241418 0.651413
vn -0.719290 0.241418 0.651413
vn -0.719290 0.241418 0.651413
vn -0.719290 0.241418 0.651413
vn 0.719289 0.241418 0.651414
vn 0.719289 0.241418 0.651414
vn 0.719289 0.241418 0.651414
vn 0.719289 0.241418 0.651414
vn 0.999652 0.014764 -0.021849
vn 0.999652 0.014764 -0.021849
vn 0.999652 0.014764 -0.021849
vn 0.999652 0.014764 -0.021849
vn 0.782402 0.216419 -0.583960
vn 0.782402 0.216419 -0.583960
vn 0.782402 0.216419 -0.583960
vn 0.782402 0.216419 -0.583960
vn -0.708950 0.228688 -0.667152
vn -0.708950 0.228688 -0.667152
vn -0.708950 0.228688 -0.667152
vn -0.708950 0.228688 -0.667152
vn -0.998672 0.043563 -0.027521
vn -0.998672 0.043563 -0.027521
vn -0.998672 0.043563 -0.027521
vn -0.998672 0.043563 -0.027521
vn -0.612429 0.368657 0.699301
vn -0.612429 0.368657 0.699301
vn -0.612429 0.368657 0.699301
vn -0.612429 0.368657 0.699301
vn 0.612429 0.368657 0.699302
vn 0.612429 0.368657 0.699302
vn 0.612429 0.368657 0.699302
vn 0.612429 0.368657 0.699302
vn 0.998672 0.043563 -0.027521
vn 0.998672 0.043563 -0.027521
vn 0.998672 0.043563 -0.027521
vn 0.998672 0.043563 -0.027521
vn 0.708950 0.228688 -0.667152
vn 0.708950 0.228688 -0.667152
vn 0.708950 0.228688 -0.667152
vn 0.708950 0.228688 -0.667152
vn -0.613013 0.242302 -0.752001
vn -0.613013 0.242302 -0.752001
vn -0.613013 0.242302 -0.752001
vn -0.613013 0.242302 -0.752001
vn -0.997628 0.058776 -0.035838
vn -0.997628 0.058776 -0.035838
vn -0.997628 0.058776 -0.035838
vn -0.997628 0.058776 -0.035838
vn -0.490552 0.475589 0.730187
vn -0.490552 0.475589 0.730187
vn -0.490552 0.475589 0.730187
vn -0.490552 0.475589 0.730187
vn 0.490551 0.475589 0.730188
vn 0.490551 0.475589 0.730188
vn 0.490551 0.475589 0.730188
vn 0.490551 0.475589 0.730188
vn 0.997628 0.058776 -0.035838
vn 0.997628 0.058776 -0.035838
vn 0.997628 0.058776 -0.035838
vn 0.997628 0.058776 -0.035838
vn 0.613014 0.242302 -0.752000
vn 0.613014 0.242302 -0.752000
vn 0.613014 0.242302 -0.752000
vn 0.613014 0.242302 -0.752000
vn -0.531086 0.206810 -0.821692
vn -0.531086 0.206810 -0.821692
vn -0.531086 0.206810 -0.821692
vn -0.531086 0.206810 -0.821692
vn -0.986424 0.158018 -0.044692
vn -0.986424 0.158018 -0.044692
vn -0.986424 0.158018 -0.044692
vn -0.986424 0.158018 -0.044692
vn -0.343403 0.682972 0.644689
vn -0.343403 0.682972 0.644689
vn -0.343403 0.682972 0.644689
vn -0.343403 0.682972 0.644689
vn 0.343402 0.682972 0.644689
vn 0.343402 0.682972 0.644689
vn 0.343402 0.682972 0.644689
vn 0.343402 0.682972 0.644689
vn 0.986424 0.158018 -0.044692
vn 0.986424 0.158018 -0.044692
vn 0.986424 0.158018 -0.044692
vn 0.986424 0.158018 -0.044692
vn 0.531087 0.206810 -0.821691
vn 0.531087 0.206810 -0.821691
vn 0.531087 0.206810 -0.821691
vn 0.531087 0.206810 -0.821691
vn -0.430742 0.009863 -0.902421
vn -0.430742 0.009863 -0.902421
vn -0.430742 0.009863 -0.902421
vn -0.430742 0.009863 -0.902421
vn -0.992690 0.105881 -0.057937
vn -0.992690 0.105881 -0.057937
vn -0.992690 0.105881 -0.057937
vn -0.992690 0.105881 -0.057937
vn -0.197875 0.844707 0.497308
vn -0.197875 0.844707 0.497308
vn -0.197875 0.844707 0.497308
vn -0.197874 0.844707 0.497308
vn 0.197874 0.844706 0.497311
vn 0.197874 0.844706 0.497311
vn 0.197874 0.844706 0.497311
vn 0.197874 0.844706 0.497311
vn 0.992690 0.105881 -0.057937
vn 0.992690 0.105881 -0.057937
vn 0.992690 0.105881 -0.057937
vn 0.992690 0.105881 -0.057937
vn 0.430742 0.009863 -0.902421
vn 0.430742 0.009863 -0.902421
vn 0.430742 0.009863 -0.902421
vn 0.430742 0.009863 -0.902421
vn 0.517363 0.853970 -0.055412
vn 0.517363 0.853970 -0.055412
vn -0.000001 -0.999340 -0.036338
vn -0.000001 -0.999340 -0.036338
s off
g Geo_SharkFin
usemtl lambert2SG
f 1/7/1 2/8/2 8/15/3 7/14/4
f 2/8/5 3/9/6 9/16/7 8/15/8
f 3/9/9 4/10/10 10/17/11 9/16/12
f 4/10/13 5/11/14 11/18/15 10/17/16
f 5/11/17 6/12/18 12/19/19 11/18/20
f 6/12/21 1/13/22 7/20/23 12/19/24
s 1
f 1/1/25 6/6/26 5/5/27 4/4/28
s 2
f 37/51/29 38/52/30 39/53/31 40/54/32
s off
f 7/25/33 8/24/34 14/28/35 13/27/36
f 8/24/37 9/23/38 15/29/39 14/28/40
f 9/23/41 10/22/42 16/30/43 15/29/44
f 10/22/45 11/21/46 17/31/47 16/30/48
f 11/21/49 12/26/50 18/32/51 17/31/52
f 12/26/53 7/25/54 13/27/55 18/32/56
f 13/27/57 14/28/58 20/34/59 19/33/60
f 14/28/61 15/29/62 21/35/63 20/34/64
f 15/29/65 16/30/66 22/36/67 21/35/68
f 16/30/69 17/31/70 23/37/71 22/36/72
f 17/31/73 18/32/74 24/38/75 23/37/76
f 18/32/77 13/27/78 19/33/79 24/38/80
f 19/33/81 20/34/82 26/40/83 25/39/84
f 20/34/85 21/35/86 27/41/87 26/40/88
f 21/35/89 22/36/90 28/42/91 27/41/92
f 22/36/93 23/37/94 29/43/95 28/42/96
f 23/37/97 24/38/98 30/44/99 29/43/100
f 24/38/101 19/33/102 25/39/103 30/44/104
f 25/39/105 26/40/106 32/46/107 31/45/108
f 26/40/109 27/41/110 33/47/111 32/46/112
f 27/41/113 28/42/114 34/48/115 33/47/116
f 28/42/117 29/43/118 35/49/119 34/48/120
f 29/43/121 30/44/122 36/50/123 35/49/124
f 30/44/125 25/39/126 31/45/127 36/50/128
f 31/45/129 32/46/130 38/52/131 37/51/132
f 32/46/133 33/47/134 39/53/135 38/52/136
f 33/47/137 34/48/138 40/54/139 39/53/140
f 34/48/141 35/49/142 41/55/143 40/54/144
f 35/49/145 36/50/146 42/56/147 41/55/148
f 36/50/149 31/45/150 37/51/151 42/56/152
s 2
f 37/51/29 40/54/32 41/55/153 42/56/154
s 1
f 1/1/25 4/4/28 3/3/155 2/2/156
